<?xml version="1.0" standalone="no"?>
<!DOCTYPE svg PUBLIC "-//W3C//DTD SVG 20010904//EN"
 "http://www.w3.org/TR/2001/REC-SVG-20010904/DTD/svg10.dtd">
<svg version="1.0" xmlns="http://www.w3.org/2000/svg"
 width="1472.000000pt" height="832.000000pt" viewBox="0 0 1472.000000 832.000000"
 preserveAspectRatio="xMidYMid meet">

<g transform="translate(0.000000,832.000000) scale(0.100000,-0.100000)"
fill="#000000" stroke="none">
<path d="M2650 5618 c-63 -18 -120 -90 -120 -152 l0 -25 643 -3 642 -3 48 -24
c56 -27 99 -69 130 -126 l22 -40 -3 -577 -2 -577 130 -3 c124 -3 130 -2 130
17 0 11 0 321 0 689 0 631 -1 671 -19 711 -10 23 -35 54 -54 69 -74 56 -70 56
-821 55 -422 0 -705 -5 -726 -11z"/>
<path d="M8800 5540 c-11 -11 -20 -31 -20 -44 0 -13 -7 -29 -15 -36 -8 -7 -15
-17 -15 -22 0 -5 -10 -18 -22 -29 -33 -26 -18 -23 20 4 17 13 29 27 25 31 -4
4 5 2 20 -3 44 -17 82 -13 103 10 18 21 24 21 199 16 233 -8 431 -37 700 -103
70 -17 104 -30 114 -44 11 -17 25 -20 81 -20 60 0 77 -5 171 -51 174 -85 307
-184 433 -322 l77 -86 -12 -42 c-13 -40 -12 -42 16 -66 73 -63 188 35 131 112
-9 13 -25 18 -57 18 -43 -1 -46 2 -94 65 -99 130 -342 309 -527 388 -64 27
-68 30 -68 61 0 62 -81 82 -132 31 -19 -19 -20 -19 -161 12 -225 49 -436 79
-647 91 -171 10 -197 14 -208 30 -18 26 -85 26 -112 -1z"/>
<path d="M1893 5364 c-21 -11 -36 -28 -43 -50 -22 -66 -33 -64 308 -64 170 0
334 -5 363 -10 119 -22 250 -114 299 -211 47 -90 50 -122 50 -511 l0 -368 -42
0 -43 0 3 136 c2 93 0 134 -7 129 -6 -3 -11 -18 -11 -33 0 -21 -2 -24 -10 -12
-7 11 -10 7 -12 -20 -1 -19 -4 -1 -8 40 l-6 75 -4 -115 c-2 -74 -5 -95 -7 -57
-3 35 -8 57 -16 57 -7 0 -6 4 3 10 12 8 11 10 -7 10 -12 0 -23 -5 -25 -12 -8
-24 -38 1 -39 34 -1 26 -3 28 -6 9 -4 -19 -7 -21 -15 -10 -7 10 -8 7 -4 -11 3
-14 12 -83 21 -155 9 -71 20 -152 24 -180 l7 -50 11 42 c8 32 8 41 -1 37 -6
-4 -2 3 9 14 18 19 26 21 70 14 28 -5 111 -9 186 -11 l137 -2 21 118 c11 65
26 150 31 188 19 128 18 125 56 125 40 0 35 17 69 -235 14 -104 28 -210 32
-235 6 -41 9 -31 33 105 32 183 36 194 65 205 56 21 70 1 94 -133 6 -32 15
-76 21 -98 l11 -39 214 0 215 0 0 554 c0 387 -3 563 -11 587 -23 68 -101 128
-177 134 -26 3 -447 7 -937 9 -795 5 -893 4 -922 -10z m787 -1075 c0 -17 -4
-28 -10 -24 -5 3 -10 17 -10 31 0 13 5 24 10 24 6 0 10 -14 10 -31z m67 -46
c-3 -10 -5 -4 -5 12 0 17 2 24 5 18 2 -7 2 -21 0 -30z m-70 -130 c-3 -10 -5
-2 -5 17 0 19 2 27 5 18 2 -10 2 -26 0 -35z m20 25 c-3 -8 -6 -5 -6 6 -1 11 2
17 5 13 3 -3 4 -12 1 -19z m70 6 c-3 -3 -12 -4 -19 -1 -8 3 -5 6 6 6 11 1 17
-2 13 -5z m10 -30 c-3 -3 -12 -4 -19 -1 -8 3 -5 6 6 6 11 1 17 -2 13 -5z"/>
<path d="M9240 5312 c-80 -4 -213 -23 -275 -38 -87 -21 -227 -65 -222 -70 2
-2 18 1 35 7 17 6 39 9 48 7 9 -2 -11 -10 -44 -19 -38 -9 -59 -11 -55 -5 3 6
-5 2 -18 -10 -48 -41 -75 -54 -88 -41 -10 9 -12 9 -9 0 2 -6 -6 -19 -17 -28
l-20 -16 20 9 c11 5 45 20 75 35 30 14 71 30 90 36 19 6 58 17 85 26 119 35
262 57 390 59 167 1 185 -3 185 -49 0 -70 66 -96 131 -52 41 27 51 77 22 109
-16 18 -26 20 -80 15 -42 -4 -71 -2 -90 7 -31 15 -95 22 -163 18z"/>
<path d="M8525 5280 c-3 -6 1 -7 9 -4 18 7 21 14 7 14 -6 0 -13 -4 -16 -10z"/>
<path d="M5355 4960 c-284 -45 -477 -216 -540 -477 -24 -99 -17 -301 13 -386
38 -106 85 -180 162 -257 131 -131 262 -181 475 -181 190 0 334 48 443 146
l45 41 -43 69 c-23 39 -52 85 -62 103 -24 39 -30 39 -72 7 -18 -13 -64 -39
-102 -57 -66 -31 -75 -32 -189 -33 -111 0 -125 2 -180 28 -96 45 -156 112
-188 212 -64 195 7 394 170 479 129 66 314 52 454 -34 27 -16 53 -30 57 -30 4
1 40 49 80 108 l73 107 -28 23 c-43 35 -180 98 -254 116 -84 20 -237 28 -314
16z"/>
<path d="M9034 4955 c-119 -26 -222 -102 -275 -205 -21 -39 -24 -59 -24 -155
0 -103 2 -113 30 -164 52 -94 119 -138 310 -203 184 -62 244 -89 270 -119 43
-52 30 -134 -27 -169 -97 -59 -310 -24 -429 71 -22 17 -41 30 -42 28 -2 -2
-17 -31 -35 -64 -17 -33 -43 -83 -59 -111 -34 -64 -31 -68 80 -122 111 -54
181 -72 309 -79 169 -9 296 27 395 111 129 112 169 308 93 463 -52 106 -142
161 -372 229 -161 47 -200 69 -218 120 -23 66 26 125 113 138 81 12 217 -28
324 -94 12 -8 24 -12 26 -10 10 13 127 209 127 213 0 11 -127 79 -179 97 -121
41 -297 51 -417 25z"/>
<path d="M12811 4876 c-69 -73 -8 -182 87 -156 72 19 85 119 23 167 -28 21
-85 16 -110 -11z m114 -27 c28 -54 12 -121 -18 -75 -10 15 -13 27 -7 31 6 3
10 14 10 25 0 18 -18 30 -46 30 -21 0 -17 -17 6 -23 23 -6 27 -37 5 -37 -12 0
-10 -5 6 -21 25 -25 20 -43 -13 -47 -43 -5 -92 82 -58 103 10 6 11 2 14 -47 1
-15 5 -30 9 -34 10 -11 8 51 -3 80 -21 55 67 69 95 15z"/>
<path d="M6305 4699 c-107 -16 -265 -82 -265 -110 0 -6 25 -49 55 -95 l54 -84
35 21 c54 32 133 49 223 50 133 1 185 -36 198 -142 l7 -57 -173 -4 c-227 -7
-286 -24 -369 -106 -69 -70 -84 -116 -78 -235 5 -91 28 -145 85 -199 55 -53
118 -73 228 -73 112 0 171 16 245 65 48 32 60 28 60 -22 l0 -28 136 0 135 0
-3 378 c-4 439 -4 438 -97 533 -40 41 -72 62 -113 77 -107 40 -230 50 -363 31z
m300 -600 c4 -5 4 -37 0 -70 -13 -110 -80 -169 -193 -169 -109 0 -162 42 -162
128 0 65 40 100 130 115 55 9 219 7 225 -4z"/>
<path d="M12360 4704 c-148 -25 -261 -77 -339 -156 -53 -53 -113 -164 -130
-238 -6 -25 -11 -90 -11 -145 0 -80 5 -114 24 -168 58 -164 172 -272 336 -321
89 -27 213 -31 309 -12 88 18 222 78 255 114 18 21 18 22 -10 69 -37 65 -103
153 -113 153 -5 0 -14 -7 -22 -16 -26 -32 -110 -65 -179 -71 -176 -15 -291 75
-306 239 -14 149 60 251 209 289 64 16 170 -2 249 -42 32 -16 61 -29 65 -29 5
0 23 26 41 58 19 31 45 77 59 101 l26 44 -28 23 c-41 32 -125 72 -189 88 -59
16 -204 27 -246 20z"/>
<path d="M7475 4680 c-58 -23 -119 -70 -146 -114 l-19 -31 0 73 0 72 -145 0
-145 0 0 -500 0 -500 145 0 145 0 0 243 c0 171 4 258 13 295 32 121 115 182
251 185 l76 2 0 148 0 147 -62 -1 c-37 0 -84 -8 -113 -19z"/>
<path d="M8050 4684 c-91 -24 -162 -64 -226 -128 -240 -240 -170 -682 133
-838 188 -97 442 -84 631 32 28 17 52 37 52 44 0 15 -91 156 -111 173 -12 9
-23 6 -56 -16 -62 -42 -147 -65 -233 -65 -118 1 -201 46 -245 134 -36 72 -34
80 23 80 26 1 189 2 362 3 l315 2 3 70 c8 160 -39 307 -125 393 -52 52 -148
104 -223 121 -65 15 -236 12 -300 -5z m287 -220 c51 -32 82 -81 90 -144 l6
-40 -231 0 c-127 0 -233 3 -235 8 -3 4 4 30 15 59 22 61 89 126 146 142 65 18
157 7 209 -25z"/>
<path d="M11245 4687 c-57 -15 -125 -48 -172 -85 l-33 -24 0 51 0 51 -145 0
-145 0 0 -500 0 -500 155 0 155 0 0 305 c0 338 0 336 64 393 45 39 105 56 175
49 58 -6 90 -28 119 -82 15 -26 17 -75 20 -347 l3 -318 32 -1 c18 0 79 -2 135
-4 57 -2 110 -1 118 2 12 4 14 62 14 338 0 183 -4 356 -10 385 -25 131 -106
239 -208 275 -62 22 -212 28 -277 12z"/>
<path d="M9610 4671 c0 -6 16 -45 36 -88 157 -340 328 -734 344 -792 6 -22 8
-52 4 -66 -8 -32 -68 -85 -97 -85 -26 0 -122 43 -131 59 -14 23 -26 9 -78 -95
-61 -121 -62 -115 41 -156 47 -19 76 -23 176 -23 111 0 124 2 177 28 100 49
118 79 262 427 47 113 106 252 132 310 85 194 116 265 144 331 15 36 35 80 44
97 32 63 32 63 -136 60 l-152 -3 -31 -80 c-17 -44 -65 -178 -106 -297 -41
-120 -76 -218 -79 -218 -3 0 -45 112 -94 248 -49 136 -99 271 -112 300 l-23
52 -160 0 c-95 0 -161 -4 -161 -9z"/>
<path d="M2604 4464 c7 -42 12 -51 19 -39 6 11 5 21 -2 28 -6 6 -11 21 -11 33
0 13 -4 25 -8 28 -5 3 -4 -20 2 -50z"/>
<path d="M2482 4350 c0 -14 2 -19 5 -12 2 6 2 18 0 25 -3 6 -5 1 -5 -13z"/>
<path d="M2472 4280 c0 -14 2 -19 5 -12 2 6 2 18 0 25 -3 6 -5 1 -5 -13z"/>
<path d="M2412 4220 c0 -14 2 -19 5 -12 2 6 2 18 0 25 -3 6 -5 1 -5 -13z"/>
<path d="M2457 4213 c-2 -10 -8 -26 -12 -35 -4 -10 -3 -18 3 -18 5 0 12 14 16
32 7 34 2 50 -7 21z"/>
<path d="M2431 4204 c0 -11 3 -14 6 -6 3 7 2 16 -1 19 -3 4 -6 -2 -5 -13z"/>
<path d="M3177 4190 c-3 -14 -13 -60 -22 -102 l-16 -78 -195 0 -194 0 -10 -25
c-6 -14 -20 -76 -33 -138 l-22 -112 -40 0 c-47 0 -42 -18 -75 269 -11 99 -23
182 -27 185 -3 3 -3 -16 1 -44 4 -34 3 -45 -4 -35 -7 11 -10 4 -10 -27 0 -68
-12 -73 -163 -74 -116 -1 -126 -3 -79 -11 l52 -10 -22 -30 c-12 -17 -30 -33
-40 -36 -10 -2 -18 -8 -18 -13 0 -5 -7 -9 -15 -9 -9 0 -27 -12 -40 -27 -13
-16 -25 -22 -25 -15 0 17 -20 15 -20 -3 0 -8 -6 -15 -13 -15 -7 0 -18 -9 -25
-20 -7 -12 -23 -25 -37 -30 -13 -5 -29 -21 -37 -37 -7 -15 -26 -34 -41 -41
-16 -8 -32 -24 -37 -37 -5 -13 -19 -30 -32 -39 -20 -15 -23 -15 -31 0 -13 23
-27 0 -27 -46 -1 -74 -18 -3 -25 105 -4 61 -9 112 -11 114 -2 2 -4 -199 -4
-447 0 -427 1 -454 20 -505 11 -29 35 -67 52 -85 68 -65 19 -61 980 -64 l873
-3 47 23 c58 29 104 79 118 131 7 25 9 230 8 596 l-3 556 -237 -1 c-272 -1
-244 -11 -273 108 -10 40 -20 71 -22 68 -2 -2 -11 -46 -18 -97 -8 -52 -25
-152 -38 -224 -23 -129 -23 -130 -51 -133 -16 -2 -32 0 -37 5 -7 7 -34 171
-64 388 -8 61 -14 82 -18 65z m-630 -152 c-3 -7 -5 -2 -5 12 0 14 2 19 5 13 2
-7 2 -19 0 -25z m13 -22 c0 -2 -7 -7 -16 -10 -8 -3 -12 -2 -9 4 6 10 25 14 25
6z"/>
<path d="M2421 4175 c0 -6 4 -19 8 -30 6 -14 3 -24 -8 -33 -14 -11 -14 -12 4
-10 26 4 31 32 11 60 -9 12 -16 18 -15 13z"/>
<path d="M2402 4150 c0 -14 2 -19 5 -12 2 6 2 18 0 25 -3 6 -5 1 -5 -13z"/>
<path d="M2278 4103 c23 -2 61 -2 85 0 23 2 4 4 -43 4 -47 0 -66 -2 -42 -4z"/>
<path d="M4017 4014 c-4 -4 -7 -243 -7 -532 l0 -524 48 7 c103 15 192 84 209
162 4 21 8 229 8 463 l0 425 -126 3 c-69 1 -128 -1 -132 -4z"/>
<path d="M7340 3302 l0 -48 -40 4 c-33 3 -44 -1 -70 -26 -23 -24 -30 -39 -30
-71 0 -82 47 -124 115 -104 22 7 37 7 43 1 31 -31 40 46 26 215 -6 66 -10 77
-25 77 -16 0 -19 -8 -19 -48z m2 -96 c12 -18 9 -91 -4 -104 -20 -20 -76 -15
-88 7 -18 35 -12 88 12 105 23 16 67 12 80 -8z"/>
<path d="M9200 3301 l0 -50 -30 5 c-35 8 -87 -11 -100 -37 -6 -10 -10 -42 -10
-73 0 -47 4 -57 26 -75 28 -22 69 -27 94 -11 9 5 19 5 28 -2 26 -22 33 8 30
148 -3 123 -5 139 -20 142 -15 3 -18 -4 -18 -47z m-12 -99 c19 -24 15 -79 -8
-102 -25 -25 -32 -25 -61 -1 -32 25 -32 86 -1 112 24 19 49 16 70 -9z"/>
<path d="M11820 3201 c0 -145 1 -151 20 -151 20 0 20 5 18 147 -3 131 -5 148
-20 151 -17 3 -18 -9 -18 -147z"/>
<path d="M12277 3336 c-8 -9 -18 -29 -22 -45 -5 -23 -13 -30 -42 -36 -40 -7
-47 -3 -48 28 0 12 -7 23 -17 25 -11 2 -18 -3 -18 -12 0 -8 -10 -25 -22 -36
-22 -20 -22 -22 -5 -34 13 -10 17 -28 17 -83 0 -63 2 -71 24 -82 31 -17 70
-10 74 12 2 10 0 17 -5 16 -4 -1 -18 -1 -30 0 -21 1 -23 6 -23 66 l0 65 48 0
47 0 -4 -85 -3 -85 27 0 c24 0 26 3 24 33 -1 17 -1 56 0 85 1 48 3 52 26 52
18 0 25 5 25 20 0 16 -7 20 -31 20 -24 0 -30 3 -25 16 3 9 6 20 6 25 0 5 16 9
36 9 28 0 35 3 32 18 -4 23 -70 29 -91 8z"/>
<path d="M5892 3198 c3 -127 5 -143 21 -146 16 -3 17 9 17 142 0 140 -1 146
-20 146 -20 0 -20 -5 -18 -142z"/>
<path d="M7902 3198 c3 -127 5 -143 21 -146 16 -3 17 9 17 142 0 140 -1 146
-20 146 -20 0 -20 -5 -18 -142z"/>
<path d="M11080 3315 c0 -26 18 -33 37 -14 16 16 5 39 -18 39 -14 0 -19 -7
-19 -25z"/>
<path d="M4930 3310 c-24 -24 -27 -82 -5 -104 9 -8 32 -18 53 -21 61 -10 82
-22 82 -48 0 -45 -43 -59 -118 -38 -31 9 -33 8 -30 -12 2 -17 13 -24 51 -31
83 -15 137 15 137 77 0 43 -22 62 -91 85 -42 13 -55 22 -57 39 -5 31 39 48 90
35 30 -8 38 -7 43 6 9 23 -13 32 -77 32 -45 0 -63 -5 -78 -20z"/>
<path d="M6666 3308 c-3 -13 -6 -76 -6 -141 0 -107 2 -118 18 -115 15 3 17 17
20 106 1 56 6 102 10 102 4 0 22 -45 41 -100 29 -91 35 -100 57 -100 27 0 28
2 74 132 26 72 28 76 34 47 3 -18 6 -67 6 -110 0 -72 2 -79 20 -79 18 0 20 7
20 73 0 39 -3 102 -7 140 l-6 67 -33 0 -34 0 -32 -105 c-18 -58 -35 -105 -38
-105 -3 0 -21 46 -40 103 -34 98 -36 102 -66 105 -26 3 -33 -1 -38 -20z"/>
<path d="M7428 3324 c-12 -11 4 -34 24 -34 13 0 18 6 16 17 -3 18 -29 29 -40
17z"/>
<path d="M8070 3195 c0 -113 3 -137 15 -142 21 -7 28 1 30 34 1 16 3 36 3 46
2 12 11 17 32 17 26 0 33 -7 55 -50 20 -40 30 -50 50 -50 14 0 25 2 25 5 0 2
-13 27 -30 55 -16 27 -25 50 -20 50 15 0 50 62 50 88 0 13 -13 37 -29 53 -27
27 -35 29 -105 29 l-76 0 0 -135z m165 61 c8 -24 6 -31 -14 -47 -15 -12 -39
-19 -67 -19 l-44 0 0 50 0 51 57 -3 c53 -3 58 -5 68 -32z"/>
<path d="M9395 3295 c-51 -53 -55 -133 -10 -201 29 -45 175 -58 175 -15 0 15
-8 17 -54 13 -48 -4 -57 -1 -80 21 -21 21 -26 36 -26 76 0 68 29 102 86 103
23 0 51 -3 62 -7 18 -5 22 -2 22 13 0 25 -18 32 -87 32 -51 0 -59 -3 -88 -35z"/>
<path d="M10786 3315 c-3 -8 3 -19 13 -24 21 -12 31 -5 31 21 0 22 -35 25 -44
3z"/>
<path d="M11582 3193 c3 -130 4 -138 23 -138 16 0 21 8 23 43 3 38 6 42 30 42
85 0 132 40 132 112 0 61 -29 78 -135 78 l-76 0 3 -137z m152 81 c41 -40 0
-97 -67 -92 l-42 3 -3 53 -3 52 50 0 c32 0 55 -6 65 -16z"/>
<path d="M10664 3280 c-4 -16 -13 -30 -20 -30 -8 0 -14 -7 -14 -15 0 -8 7 -15
15 -15 12 0 15 -14 15 -68 0 -79 18 -106 67 -100 39 4 44 35 6 40 -27 3 -28 5
-31 66 l-3 62 31 0 c23 0 30 4 30 20 0 16 -7 20 -30 20 -25 0 -30 4 -30 25 0
36 -29 32 -36 -5z"/>
<path d="M11179 3298 c-1 -7 -1 -19 0 -26 1 -7 -5 -15 -14 -18 -19 -8 -20 -34
0 -34 12 0 15 -14 15 -67 0 -38 4 -74 9 -82 5 -7 29 -16 55 -18 42 -5 46 -4
46 16 0 17 -6 21 -35 21 l-35 0 0 65 c0 63 1 65 26 65 33 0 30 33 -4 38 -16 3
-22 10 -22 28 0 17 -5 24 -20 24 -11 0 -21 -6 -21 -12z"/>
<path d="M5163 3245 c-26 -18 -45 -78 -36 -114 13 -58 63 -86 131 -76 33 5 42
10 40 23 -3 14 -13 16 -51 14 -35 -3 -53 1 -67 13 -30 27 -15 35 62 35 l71 0
-6 42 c-4 27 -14 49 -27 60 -27 22 -88 23 -117 3z m92 -29 c32 -23 12 -46 -40
-46 -38 0 -45 3 -45 20 0 35 51 51 85 26z"/>
<path d="M5357 3249 c-29 -17 -8 -30 37 -24 33 5 47 3 59 -10 27 -26 20 -35
-26 -35 -58 0 -87 -22 -87 -65 0 -53 59 -82 110 -55 13 7 21 7 25 0 3 -5 13
-10 21 -10 11 0 14 18 14 84 0 79 -2 86 -26 105 -29 23 -96 28 -127 10z m103
-129 c0 -28 -2 -30 -39 -30 -43 0 -55 9 -45 34 6 16 24 23 62 25 18 1 22 -4
22 -29z"/>
<path d="M5553 3244 c-2 -6 -3 -51 -1 -100 3 -74 6 -89 20 -92 15 -3 18 8 20
80 l3 83 40 0 40 0 5 -80 c4 -66 8 -80 23 -83 15 -3 17 6 17 76 0 85 4 92 56
92 23 0 24 -2 24 -80 0 -64 3 -82 16 -87 31 -12 38 12 28 104 -9 83 -10 88
-37 97 -19 7 -38 6 -63 -3 -25 -9 -39 -10 -48 -2 -16 14 -137 10 -143 -5z"/>
<path d="M6003 3245 c-53 -37 -48 -154 7 -182 46 -23 140 -11 140 17 0 6 -21
10 -47 10 -67 0 -93 9 -93 31 0 17 8 19 71 19 l72 0 -6 42 c-4 27 -14 49 -27
60 -27 22 -88 23 -117 3z m102 -43 c9 -23 -5 -30 -53 -24 -46 5 -51 19 -13 38
27 14 57 8 66 -14z"/>
<path d="M6202 3244 c-45 -31 -22 -80 50 -103 72 -23 57 -54 -25 -49 -39 3
-47 0 -47 -14 0 -22 60 -34 109 -22 26 7 38 16 45 37 14 39 0 58 -62 82 -75
29 -66 61 13 48 39 -6 67 13 42 29 -21 13 -102 9 -125 -8z"/>
<path d="M6387 3242 c-35 -39 -12 -83 50 -97 36 -7 58 -29 47 -46 -4 -8 -25
-10 -60 -6 -48 5 -54 3 -54 -13 0 -20 26 -30 80 -30 47 0 80 24 80 58 0 39
-11 50 -65 71 -27 10 -51 24 -53 29 -5 15 42 26 73 18 31 -8 46 0 38 19 -8 23
-115 20 -136 -3z"/>
<path d="M7025 3237 c-20 -16 -28 -35 -31 -67 -9 -85 38 -127 127 -115 38 5
49 11 49 24 0 16 -7 17 -50 13 -54 -5 -80 8 -80 39 0 16 8 18 66 16 l66 -2 4
33 c8 72 -91 111 -151 59z m105 -26 c15 -30 14 -31 -40 -31 -52 0 -60 8 -34
34 21 22 61 20 74 -3z"/>
<path d="M7543 3245 c-33 -23 -46 -75 -33 -125 9 -34 18 -44 47 -57 47 -19
122 -10 119 15 -2 13 -12 16 -44 14 -62 -5 -82 10 -82 62 0 64 40 93 91 66 16
-9 19 -7 19 9 0 33 -77 44 -117 16z"/>
<path d="M7713 3253 c-7 -2 -13 -11 -13 -19 0 -11 15 -14 61 -14 52 0 60 -2
57 -17 -2 -12 -14 -19 -33 -21 -57 -5 -72 -12 -83 -37 -21 -47 14 -95 70 -95
13 0 30 6 36 12 10 10 15 10 21 -1 19 -30 31 2 31 80 0 99 -15 119 -87 118
-27 0 -54 -3 -60 -6z m107 -126 c0 -33 -40 -51 -69 -31 -32 23 -12 54 34 54
30 0 35 -3 35 -23z"/>
<path d="M8328 3237 c-37 -35 -43 -77 -20 -131 19 -41 24 -45 65 -51 60 -9
109 2 105 23 -3 14 -13 16 -54 14 -37 -3 -55 1 -67 13 -29 28 -20 34 56 37
l72 3 -2 33 c-3 76 -98 111 -155 59z m93 -17 c32 -18 23 -40 -15 -40 -19 0
-41 -3 -50 -6 -25 -9 -20 22 6 40 26 19 33 19 59 6z"/>
<path d="M8540 3231 c-25 -25 -30 -37 -30 -78 0 -57 22 -87 70 -98 46 -10 101
2 93 20 -3 10 -20 15 -54 15 -43 0 -51 3 -60 24 -18 40 -3 92 30 106 21 8 35
9 49 1 29 -16 34 -14 30 12 -3 19 -10 22 -51 25 -41 3 -51 -1 -77 -27z"/>
<path d="M8729 3231 c-48 -48 -37 -136 20 -166 90 -46 172 31 139 131 -23 69
-107 87 -159 35z m99 -17 c32 -22 32 -97 -2 -119 -63 -41 -121 60 -66 115 24
24 38 25 68 4z"/>
<path d="M8937 3253 c-4 -3 -7 -51 -7 -105 0 -91 1 -98 20 -98 18 0 20 7 20
73 0 78 9 97 46 97 18 0 34 17 34 36 0 8 -42 4 -61 -6 -13 -7 -19 -7 -19 0 0
11 -23 14 -33 3z"/>
<path d="M9609 3231 c-23 -23 -29 -38 -29 -71 0 -52 13 -76 50 -95 37 -19 63
-19 100 0 54 28 64 123 18 172 -33 35 -100 32 -139 -6z m103 -18 c23 -20 25
-95 3 -113 -22 -19 -66 -15 -82 6 -10 12 -13 33 -9 59 7 59 50 83 88 48z"/>
<path d="M9810 3154 c0 -95 2 -105 18 -102 14 3 17 16 20 81 3 73 4 78 28 87
48 19 63 -1 66 -88 3 -64 6 -77 21 -80 15 -3 17 6 17 86 0 73 -3 92 -18 105
-22 20 -83 22 -100 5 -9 -9 -12 -9 -12 0 0 7 -9 12 -20 12 -19 0 -20 -7 -20
-106z"/>
<path d="M10030 3153 c0 -96 1 -103 20 -103 18 0 20 7 20 73 0 82 9 97 57 97
32 0 33 -2 33 -39 0 -71 12 -131 26 -131 11 0 14 20 14 88 0 113 -8 122 -103
120 l-67 -2 0 -103z"/>
<path d="M10265 3235 c-20 -19 -25 -34 -25 -77 0 -65 19 -95 65 -104 52 -9
105 3 105 25 0 16 -7 17 -50 13 -51 -5 -80 7 -80 34 0 11 17 14 70 14 l70 0 0
35 c0 78 -100 116 -155 60z m99 -21 c26 -26 18 -34 -34 -34 -54 0 -62 10 -28
34 28 20 43 20 62 0z"/>
<path d="M10503 3250 c-28 -11 -63 -66 -63 -98 0 -59 51 -102 121 -102 40 0
59 10 59 31 0 10 -1 19 -3 19 -1 0 -16 -4 -33 -9 -21 -6 -41 -4 -62 5 -28 12
-32 18 -32 53 0 51 21 74 70 73 3 0 15 -3 28 -7 21 -6 23 -4 20 17 -2 19 -9
23 -43 25 -22 1 -50 -2 -62 -7z"/>
<path d="M10790 3156 c0 -100 1 -106 20 -106 20 0 21 5 18 102 -3 89 -5 103
-20 106 -16 3 -18 -7 -18 -102z"/>
<path d="M10861 3253 c2 -5 20 -53 39 -106 29 -81 38 -97 55 -97 18 0 27 15
53 83 38 103 41 120 21 125 -12 2 -23 -17 -44 -74 l-28 -77 -27 74 c-22 59
-32 75 -50 77 -12 2 -21 0 -19 -5z"/>
<path d="M11084 3247 c-3 -8 -4 -54 -2 -103 3 -75 6 -89 21 -92 15 -3 17 7 17
96 0 81 -3 101 -15 106 -9 3 -18 0 -21 -7z"/>
<path d="M11290 3250 c0 -5 18 -55 40 -111 21 -56 37 -106 34 -111 -3 -4 -19
-8 -35 -8 -27 0 -29 -2 -19 -20 12 -23 62 -28 77 -7 5 6 27 64 48 127 21 63
40 121 42 128 3 7 -3 12 -15 12 -12 0 -23 -10 -30 -27 -5 -16 -19 -52 -29 -82
l-20 -54 -28 81 c-22 62 -33 82 -47 82 -10 0 -18 -4 -18 -10z"/>
<path d="M11910 3250 c0 -5 0 -13 0 -17 0 -5 22 -8 50 -8 54 0 86 -19 60 -35
-8 -6 -22 -9 -30 -9 -64 5 -90 -15 -90 -70 0 -31 5 -40 25 -49 34 -15 88 -15
103 0 9 9 12 9 12 0 0 -7 7 -12 15 -12 12 0 15 15 15 79 0 64 -4 83 -21 105
-18 23 -28 26 -80 26 -33 0 -59 -4 -59 -10z m115 -110 c13 -21 -15 -50 -49
-50 -33 0 -51 17 -38 37 14 21 76 31 87 13z"/>
<path d="M12398 3243 c-29 -18 -38 -39 -38 -94 0 -47 31 -86 75 -95 71 -13
115 24 115 99 0 40 -5 53 -29 78 -34 34 -80 38 -123 12z m102 -42 c16 -31 12
-79 -10 -101 -25 -25 -31 -25 -64 1 -28 22 -33 53 -14 94 14 32 71 36 88 6z"/>
<path d="M12584 3236 c-4 -17 0 -164 5 -183 1 -2 10 -3 21 -3 18 0 20 7 20 80
0 76 1 80 23 80 31 0 51 15 44 33 -5 13 -12 14 -39 6 -22 -6 -34 -6 -36 1 -7
19 -32 10 -38 -14z"/>
<path d="M12727 3253 c-4 -3 -7 -51 -7 -105 0 -91 1 -98 20 -98 18 0 20 7 20
75 0 65 3 76 21 85 11 6 30 10 42 8 20 -3 22 -10 27 -83 4 -66 8 -80 23 -83
15 -3 17 5 17 71 0 83 10 101 57 95 28 -3 28 -4 33 -83 4 -66 8 -80 23 -83 16
-3 18 5 15 89 -3 90 -4 94 -30 108 -22 13 -35 13 -68 4 -30 -8 -50 -8 -70 0
-21 8 -36 8 -57 -2 -19 -9 -29 -9 -31 -2 -4 12 -25 15 -35 4z"/>
<path d="M7430 3155 c0 -88 1 -95 20 -95 19 0 20 7 20 95 0 88 -1 95 -20 95
-19 0 -20 -7 -20 -95z"/>
</g>
</svg>
